# xmcd CD database file
#
# Track frame offsets:
#	150
#	13920
#	24768
#	37899
#	61387
#	80013
#	97319
#	111493
#	128732
#	144279
#	156616
#	172425
#	185060
#
# Disc length: 2691 seconds
#
# Revision: 0
# Processed by: cddbd v1.5.1PL0 Copyright (c) Steve Scherf et al.
# Submitted via: CDex 1.51
#
DISCID=bd0a810d
DTITLE=Marylou - Les orages de poussière
DYEAR=2003
DGENRE=Country
TTITLE0=Les orages de poussière (à Woody)
TTITLE1=A chercher
TTITLE2=Je pense à lui
TTITLE3=Lettre au président
TTITLE4=Le vent
TTITLE5=Ar Steir
TTITLE6=Chercher de l'or
TTITLE7=Uncle Jazz
TTITLE8=Le Blues de la Route
TTITLE9=Sur une chanson de Presley
TTITLE10=Ma p'tite Lili
TTITLE11=J'ai mal aux pieds (with The Doc =Rob Dokter)
TTITLE12=Stand by
EXTD=YEAR: 2003
EXTT0=
EXTT1=
EXTT2=
EXTT3=
EXTT4=
EXTT5=
EXTT6=
EXTT7=
EXTT8=
EXTT9=
EXTT10=
EXTT11=
EXTT12=
PLAYORDER=
